<svg xmlns="http://www.w3.org/2000/svg" viewBox="0 0 72 72" role="img" aria-label="PalmGrow logo">
  <g fill="none" stroke="#e9b858" stroke-width="3.2" stroke-linecap="round" stroke-linejoin="round">
    <path d="M36 61V33"/>
    <path d="M36 33C28 42 25 50 24 59"/>
    <path d="M36 33c8 9 11 17 12 26"/>
    <path d="M35 30C24 28 16 31 8 39"/>
    <path d="M37 30c11-2 19 1 27 9"/>
    <path d="M35 27C27 18 20 13 12 11"/>
    <path d="M37 27c8-9 15-14 23-16"/>
    <path d="M36 26c-1-9-4-16-9-21"/>
    <path d="M36 26c1-9 4-16 9-21"/>
    <path d="M31 62h10"/>
  </g>
  <g fill="#e9b858">
    <circle cx="18" cy="23" r="1.8"/>
    <circle cx="22" cy="18" r="1.8"/>
    <circle cx="28" cy="15" r="1.8"/>
    <circle cx="44" cy="15" r="1.8"/>
    <circle cx="50" cy="18" r="1.8"/>
    <circle cx="54" cy="23" r="1.8"/>
    <circle cx="16" cy="31" r="1.8"/>
    <circle cx="56" cy="31" r="1.8"/>
  </g>
</svg>
